<svg xmlns="http://www.w3.org/2000/svg" width="188.418" height="108.367"><path d="M3.87 105.46C5.52 91 5.12 2.136 2.524 2.3c0 0 14.867-.186 14.895-.185 5.164.28 7.288 1.8 8.906 3.973.37.508.693 1.062 1.015 1.618 2.517 4.193 5.67 7.754 8.523 11.694a.33.33 0 00.586-.098c.87-3.046 1.524-6.255 2.905-9.102 1.342-2.588 2.496-4.39 4.253-5.777C45.64 2.806 48.968 1.79 51 1.93c3.626-.092 8.362-.228 12.03-.32a.33.33 0 01.307.198l1.204 2.708c-.277.42.093.323-.23.74l4.21 12.984c.117.365.662.268.648-.116-.178-4.71-.933-8.163-2.178-12.175.186-.37.554-.326.37-.74-.092-.188-.416-.554-.277-.83l.98-2.516a.327.327 0 01.31-.21l15.53.043c9.795.232 10.49 7.81 11.136 15.62.41 5.303.278 11.508.19 17.098a.336.336 0 00.16.29c.47.287.817.4 1.133.875.176.264.584.165.61-.15L99.428 6.04c.047-.37.463-.647.508-1.064 0-.245-.257-.382-.314-.637a.31.31 0 01.03-.19l.98-2.21a.333.333 0 01.302-.197l22.13-.135c.205 0 .363.182.33.385l-.862 5.296 1.863-5.412a.332.332 0 01.317-.224l31.98.272c.194.002.345.17.326.364-.315 3.253-.625 6.507-.937 9.76.74-1.062.785-.602 1.476-1.664.46.046-.276-.185-.044-.553 11.687-16.57 23.836-8.382 28.733 1.36a.35.35 0 01.024.24c-.642 2.5-1.5 4.96-1.317 7.778l-.18 29.363c-.003.27.292.412.52.27 2.123-1.323 4.214 7.228 1.05 10.387-.463.468-1.133.466-1.628.86a.342.342 0 00-.12.267l.17 29.368c.057 1.956.28 4.437 1.548 7.195a.35.35 0 01-.008.303c-4.33 8.035-9.95 10.737-15.52 11.143-.007.01-28.243-28.886-75.546-28.565-39.283.27-48.057 12.41-65.994 19.9-9.19 3.84-16.628 5.863-21.016 6.857" fill-rule="evenodd" clip-rule="evenodd" fill="#2FB6BC"/><path d="M184.773 85.798V59.275c1.806 1.753 3.197-1.11 3.197-4.485 0-4.297-1.764-6.977-3.197-5.08V23.23c0-7.115.745-8.456 1.663-11.555-2.91-5.635-8.444-10.673-13.674-11.18v8.41c1.16.045 2.308.693 3.282 1.894 1.477 1.848 1.477 5.083 1.477 6.24V87.6c0 .97 0 4.39-1.476 5.546-.974.737-2.122.832-3.282.32v11.785c5.088 1.943 10.764-2.495 13.674-7.855-.918-3.1-1.663-4.668-1.663-11.6zM172.763.493c-.275-.045-.546-.045-.832-.045-5.404 0-11.41 4.712-14.554 9.75.928 2.772 1.758 4.065 1.758 10.258v23.337c-.785-1.2-1.758-1.156-2.405-.232v7.118c.6 1.202 1.43 1.895 2.404 1.526V75.54c0 6.1-.83 6.885-1.758 8.918 3.144 7.394 8.922 17.376 14.555 20.426.287.14.56.276.832.37V93.467c-1.147-.508-2.31-1.57-3.283-3.14-1.477-2.45-1.477-5.453-1.477-6.7v-67.33c0-1.246 0-4.205 1.476-5.82.973-1.11 2.135-1.618 3.282-1.572V.493zM156.728 7.47V2.25h.787c-.232 1.755-.51 3.512-.788 5.22zm0 36.09c-.46.695-.786 1.85-.786 3.375 0 1.34.28 2.727.785 3.743V43.56zm0-41.31v5.22c-.323 2.264-.69 4.53-1.017 6.747-.553 3.93-1.156 7.81-1.755 11.645-.922-.787-1.895-1.572-2.817-2.354-.37-2.36-1.295-4.53-2.264-4.622-.693-.094-2.45-.323-2.45-.323V39.91c1.524-1.154 3.187 1.434 3.187 4.945 0 2.728-1.338 4.667-3.187 2.728v20.055c0 5.546.554 9.15 2.128 14.555-.417.834-.834 1.666-1.206 2.497-4.296-2.034-8.593-3.746-12.844-5.27-.417-1.06-.83-2.17-1.25-3.233 1.62-3.882 2.22-6.838 2.22-12.107V45.134c-1.894.923-3.19-1.478-3.19-3.974 0-3.235 1.758-4.9 3.19-3.33V17.64l-2.45-.185c-.97-.045-1.895 1.755-2.263 3.836-.97.46-1.943.97-2.91 1.432-.554-3.513-1.156-6.978-1.712-10.443-.6-3.422-1.2-6.888-1.755-10.307 10.767.046 21.578.138 32.346.277zM82.467 74.706v-6.284c.14-2.033.187-4.344.187-7.624v-.784c0-1.573-.047-3.466-.187-5.454V30.067c2.636-.554 3.33-2.727 3.33-11.044 0-8.04-.694-10.304-3.33-10.906v-6.19c5.04.045 8.275 1.11 10.168 4.296 1.94 3.233 2.634 8.734 2.634 17.606 0 6.008-.417 9.47-.554 11.043 1.663-.185 3.142 2.264 2.126 5.22-.647 1.94-2.82 3.33-4.16 1.387-.23.28-.415.417-1.015.694 1.71 4.02 2.08 10.673 2.08 17.7 0 4.895.97 7.807 2.586 11.875a66.865 66.865 0 00-1.153 2.726c-4.206.094-8.412.185-12.617.322l-.095-.092zm37.62-32.164c1.383 2.083 3.278.05 3.278-2.4 0-3.143-1.8-5.13-3.28-3.328-.6-.645-1.896-4.388-2.96-7.023-.69-.047-1.43-.138-2.123-.184-.83 1.062-1.296 1.57-2.447 2.08V17.36c2.91.092 3.14-.51 4.525 4.113.742.14 1.526.277 2.31.417.65-3.28 1.342-6.608 1.99-9.936.646-3.28 1.293-6.654 1.987-9.982-7.577-.046-15.11-.046-22.69-.046-.413.924-.784 1.848-1.155 2.772 1.525 4.02 2.08 6.885 2.08 11.923v18.716c-1.293.37-2.588.692-3.883 1.016v5.315c1.294.416 2.59.874 3.88 1.295v17.052c0 4.942-.553 7.855-2.078 11.874.37.925.742 1.85 1.156 2.773 6.883.278 13.68.928 20.564 1.896.6-5.868 1.155-11.74 1.754-17.606-.832-.417-1.71-.88-2.54-1.34-2.588 5.592-3.93 5.08-7.9 4.758V47.353a6.179 6.179 0 012.12 2.124c.833.14 1.618.277 2.45.417 1.25-3.19 1.895-5.73 2.96-7.352zM82.467 1.926v6.19c-.644-.136-1.382-.136-2.263-.136H79.1V30.3h1.105c.882-.05 1.62-.095 2.263-.233V54.56c-.322-4.068-.92-8.365-1.848-10.676-.368-.878-1.016-1.292-1.016 2.45V61.03c0 5.59.74 9.01 1.897 12.937-.23.323-.464.65-.693 1.02-4.205.37-8.412.783-12.613 1.477-.42-.876-.79-1.758-1.156-2.682 1.618-4.39 2.123-7.44 2.123-12.52V43.14c-1.754 1.39-3.185-.6-3.185-3.047 0-3.14 1.848-5.084 3.186-3.883V16.945c0-5.132-.504-8.042-2.122-12.153.368-.927.737-1.895 1.156-2.82 4.664-.047 9.33-.047 14-.047h.274zm0 66.496c-.183 1.85-.46 3.466-.874 5.407.275.278.552.598.874.875v-6.283zM48.365 81.36v-.553c.05 0 .05-.046.096-.046.14-.046.23-.14.323-.23l-.418.83zm0-24.257c1.018-.277 2.034-1.11 3.236-2.588v10.21c0 6.102-.136 7.766-.923 11-.462 2.08-.97 4.02-1.847 4.805.275.232.602.508.922.787a172.79 172.79 0 0113.724-4.067c.417-1.016.832-2.033 1.25-3.05-1.62-3.882-2.218-6.84-2.218-11.97V43.84c1.895.97 3.28-1.297 3.28-3.696 0-3.19-1.662-4.99-3.28-3.375V17.223c0-5.223.6-8.18 2.217-12.385-.417-.973-.832-1.894-1.25-2.866-4.295.045-8.545.045-12.842.09-.785 0-1.527.094-2.268.23v14.14-.09c.37 3.557.74 7.07 1.11 10.58 1.157-.09 2.31-.23 3.512-.368-.97 2.265-1.893 4.575-2.865 6.886.372 3.512.74 7.023 1.11 10.49-.968-1.99-1.94-4.022-2.866-6.054v19.225zm0-54.807v14.138c-.366 3.61-.736 7.212-1.11 10.814-1.154.185-2.354.372-3.51.557.925 2.125 1.895 4.205 2.868 6.284-.417 3.696-.74 7.44-1.11 11.137.97-2.45 1.895-4.9 2.863-7.302v19.178c-1.015.276-1.984 0-3.048-.694v10.396c0 6.284.323 7.81 1.017 10.767.37 1.663 1.016 3.558 2.03 3.235v.553c-.136.233-.275.463-.365.74-4.622 2.08-9.197 4.577-13.773 7.532-.37-.877-.787-1.71-1.155-2.588 1.526-5.82 2.125-9.702 2.125-15.57V50.308c-1.617 1.848-2.864.508-3.14-1.803v.51c.09-.6.09-1.293 0-2.034v-.507c.32-3.144 1.893-5.313 3.14-4.297V33.58c0-9.195 1.387-17.236 4.068-22.874 2.17-4.62 5.268-7.53 9.1-8.41zm-16.31 44.176v.508c-.047-.416-.094-.83-.232-1.292-.552-2.218-2.68-3.096-4.113-.232-.185-.23-.37-.462-.553-.694 2.078-3.787 2.54-7.624 2.54-15.11 0-11.09-.69-17.884-2.634-21.855-1.94-4.023-5.13-5.363-10.258-5.316v8.226c2.82.277 3.557 2.496 3.557 14.187 0 11.277-.738 14.372-3.557 15.667v15.526c2.82.463 3.557 4.484 3.557 16.958 0 13.355-.693 18.763-3.557 21.49v6.838c5.27-2.678 8.318-6.608 10.258-12.06 1.943-5.454 2.634-12.708 2.634-23.847 0-4.667-.092-12.337-.092-12.337 1.155-.322 2.217-1.895 2.45-4.113v-.51c0-.323-.047-.647-.047-.97 0-.37.047-.693.047-1.063zm-15.25-43.99v8.224c-.692-.092-1.477-.045-2.404 0-.415.046-.783.046-1.154.046v30.685c.37-.046.74-.092 1.155-.185.928-.185 1.713-.373 2.406-.693v15.525c-.693-.094-1.478.046-2.405.277-.415.09-.783.14-1.154.232v39.922c.37-.09.74-.184 1.155-.37.928-.413 1.713-.923 2.406-1.614v6.84l-.188.09c-4.524 2.265-9.335 3.05-14.002 3.56-.365-1.294-.78-2.542-1.152-3.84 1.524-5.77 2.17-9.976 2.17-16.91V59.273C1.784 61.027.448 58.164.448 54.79c0-4.298 1.803-6.84 3.186-5.082v-26.48c0-7.114-.645-11.137-2.17-16.82.37-1.294.787-2.587 1.152-3.884 4.667 0 9.335 0 14.002-.045h.188z" fill="none" stroke="#FFF" stroke-width=".896" stroke-linecap="round" stroke-linejoin="round"/><path d="M184.773 85.476V58.952c1.806 1.757 3.197-1.107 3.197-4.482 0-4.297-1.764-6.978-3.197-5.084V22.91c0-7.12.745-8.457 1.663-11.554C183.526 5.72 177.992.682 172.762.173v8.41c1.16.05 2.308.692 3.282 1.894 1.477 1.85 1.477 5.084 1.477 6.24V87.28c0 .972 0 4.393-1.476 5.546-.974.74-2.122.83-3.282.323v11.78c5.088 1.944 10.764-2.494 13.674-7.854-.918-3.098-1.663-4.668-1.663-11.6M172.763.172c-.275-.046-.546-.046-.832-.046-5.404 0-11.41 4.713-14.554 9.75.928 2.773 1.758 4.07 1.758 10.26v23.338c-.785-1.204-1.758-1.158-2.405-.232v7.115c.6 1.2 1.43 1.895 2.404 1.527V75.22c0 6.102-.83 6.884-1.758 8.92 3.144 7.39 8.922 17.373 14.555 20.424.287.137.56.274.832.368V93.148c-1.147-.508-2.31-1.572-3.283-3.142-1.477-2.448-1.477-5.454-1.477-6.7V15.977c0-1.25 0-4.206 1.476-5.823.973-1.11 2.135-1.616 3.282-1.572V.172zM156.728 7.15V1.93h.787c-.232 1.756-.51 3.51-.788 5.22zm0 36.09c-.46.695-.786 1.85-.786 3.375 0 1.338.28 2.724.785 3.74V43.24zm0-41.31v5.22c-.323 2.266-.69 4.53-1.017 6.745a777.443 777.443 0 01-1.755 11.648c-.922-.787-1.895-1.573-2.817-2.36-.37-2.356-1.295-4.527-2.264-4.618-.693-.094-2.45-.326-2.45-.326v21.35c1.524-1.155 3.187 1.432 3.187 4.946 0 2.726-1.338 4.667-3.187 2.726v20.056c0 5.545.554 9.15 2.128 14.555-.417.83-.834 1.663-1.206 2.496-4.296-2.033-8.593-3.745-12.844-5.27-.417-1.063-.83-2.17-1.25-3.235 1.62-3.88 2.22-6.84 2.22-12.108V44.813c-1.894.923-3.19-1.477-3.19-3.975 0-3.235 1.758-4.898 3.19-3.327V17.32l-2.45-.185c-.97-.046-1.895 1.757-2.263 3.833-.97.465-1.943.973-2.91 1.435-.554-3.51-1.156-6.976-1.712-10.442-.6-3.42-1.2-6.885-1.755-10.305 10.767.044 21.578.137 32.346.276zM82.467 74.386v-6.285c.14-2.033.187-4.345.187-7.624v-.785c0-1.573-.047-3.466-.187-5.454V29.747c2.636-.556 3.33-2.726 3.33-11.044 0-8.043-.694-10.306-3.33-10.907v-6.19c5.04.045 8.275 1.11 10.168 4.296 1.94 3.233 2.634 8.733 2.634 17.605 0 6.008-.417 9.476-.554 11.044 1.663-.185 3.142 2.265 2.126 5.223-.647 1.942-2.82 3.327-4.16 1.387-.23.277-.415.414-1.015.69 1.71 4.024 2.08 10.675 2.08 17.703 0 4.896.97 7.808 2.586 11.874-.415.924-.785 1.8-1.153 2.726-4.206.09-8.412.183-12.617.323l-.095-.093zm37.62-32.163c1.383 2.08 3.278.045 3.278-2.403 0-3.14-1.8-5.128-3.28-3.325-.6-.647-1.896-4.39-2.96-7.024-.69-.047-1.43-.14-2.123-.187-.83 1.067-1.296 1.573-2.447 2.083V17.038c2.91.094 3.14-.507 4.525 4.115.742.137 1.526.276 2.31.413.65-3.28 1.342-6.606 1.99-9.934.646-3.28 1.293-6.654 1.987-9.98-7.577-.046-15.11-.046-22.69-.046-.413.922-.784 1.848-1.155 2.773 1.525 4.018 2.08 6.884 2.08 11.92v18.717c-1.293.367-2.588.692-3.883 1.013v5.316c1.294.414 2.59.878 3.88 1.295v17.052c0 4.944-.553 7.854-2.078 11.876.37.924.742 1.848 1.156 2.772 6.883.277 13.68.927 20.564 1.895.6-5.868 1.155-11.74 1.754-17.606-.832-.417-1.71-.88-2.54-1.34-2.588 5.59-3.93 5.082-7.9 4.76V47.03a6.216 6.216 0 012.12 2.125c.833.14 1.618.278 2.45.417 1.25-3.187 1.895-5.73 2.96-7.348zM82.467 1.606v6.19c-.644-.136-1.382-.136-2.263-.136H79.1v22.317h1.105c.882-.045 1.62-.092 2.263-.23v24.49c-.322-4.065-.92-8.36-1.848-10.673-.368-.876-1.016-1.295-1.016 2.45v14.695c0 5.59.74 9.01 1.897 12.94-.23.32-.464.646-.693 1.015-4.205.37-8.412.787-12.613 1.48-.42-.88-.79-1.758-1.156-2.682 1.618-4.39 2.123-7.44 2.123-12.524V42.823c-1.754 1.385-3.185-.6-3.185-3.05 0-3.143 1.848-5.083 3.186-3.882V16.623c0-5.132-.504-8.04-2.122-12.153.368-.925.737-1.896 1.156-2.82 4.664-.046 9.33-.046 14-.046h.274zm0 66.496c-.183 1.848-.46 3.466-.874 5.407.275.275.552.6.874.877v-6.285zM48.365 81.04v-.554c.05 0 .05-.047.096-.047.14-.047.23-.14.323-.233l-.418.833zm0-24.26c1.018-.275 2.034-1.108 3.236-2.586v10.21c0 6.103-.136 7.763-.923 11-.462 2.08-.97 4.02-1.847 4.804.275.232.602.51.922.787a171.11 171.11 0 0113.724-4.065c.417-1.018.832-2.034 1.25-3.05-1.62-3.883-2.218-6.84-2.218-11.97V43.52c1.895.97 3.28-1.294 3.28-3.698 0-3.19-1.662-4.99-3.28-3.37V16.9c0-5.22.6-8.18 2.217-12.385-.417-.97-.832-1.894-1.25-2.864-4.295.044-8.545.044-12.842.09-.785 0-1.527.093-2.268.232v14.14-.093c.37 3.56.74 7.072 1.11 10.583 1.157-.092 2.31-.23 3.512-.37-.97 2.264-1.893 4.576-2.865 6.887.372 3.51.74 7.022 1.11 10.49a259.6 259.6 0 01-2.866-6.056V56.78zm0-54.805v14.14c-.366 3.605-.736 7.21-1.11 10.814-1.154.185-2.354.37-3.51.553.925 2.126 1.895 4.206 2.868 6.285-.417 3.696-.74 7.44-1.11 11.136.97-2.45 1.895-4.897 2.863-7.3V56.78c-1.015.28-1.984 0-3.048-.693v10.397c0 6.285.323 7.81 1.017 10.767.37 1.667 1.016 3.56 2.03 3.236v.554c-.136.232-.275.462-.365.74-4.622 2.08-9.197 4.575-13.773 7.534-.37-.88-.787-1.712-1.155-2.59 1.526-5.82 2.125-9.703 2.125-15.57V49.986c-1.617 1.85-2.864.508-3.14-1.802v.507c.09-.602.09-1.292 0-2.033v-.51c.32-3.14 1.893-5.314 3.14-4.297V33.26c0-9.196 1.387-17.238 4.068-22.875 2.17-4.62 5.268-7.53 9.1-8.41zm-16.31 44.177v.508c-.047-.417-.094-.83-.232-1.293-.552-2.217-2.68-3.097-4.113-.23l-.553-.694c2.078-3.79 2.54-7.626 2.54-15.112 0-11.09-.69-17.883-2.634-21.855-1.94-4.022-5.13-5.36-10.258-5.316v8.225c2.82.276 3.557 2.496 3.557 14.187 0 11.276-.738 14.37-3.557 15.665v15.526c2.82.463 3.557 4.484 3.557 16.96 0 13.355-.693 18.76-3.557 21.488v6.842c5.27-2.68 8.318-6.612 10.258-12.063 1.943-5.455 2.634-12.71 2.634-23.846 0-4.667-.092-12.34-.092-12.34 1.155-.32 2.217-1.892 2.45-4.112v-.507c0-.325-.047-.648-.047-.97 0-.37.047-.694.047-1.063zM16.805 2.16v8.225c-.692-.09-1.477-.046-2.404 0-.415.046-.783.046-1.154.046v30.687c.37-.048.74-.095 1.155-.188.928-.183 1.713-.37 2.406-.694v15.526c-.693-.09-1.478.046-2.405.28-.415.09-.783.136-1.154.23v39.925c.37-.09.74-.185 1.155-.368.928-.418 1.713-.925 2.406-1.62v6.842l-.188.09c-4.524 2.264-9.335 3.05-14.002 3.558-.365-1.293-.78-2.542-1.152-3.835 1.524-5.775 2.17-9.982 2.17-16.912v-25C1.784 60.708.448 57.844.448 54.47c0-4.297 1.803-6.84 3.186-5.084V22.91c0-7.12-.645-11.14-2.17-16.82.37-1.297.787-2.59 1.152-3.885 4.667 0 9.335 0 14.002-.046h.188z" fill="#E73085"/><path d="M184.773 85.476V58.952c1.806 1.757 3.197-1.107 3.197-4.482v-.137c-3.47-1.2-6.98-2.356-10.45-3.42V87.28c0 .972 0 4.393-1.476 5.546-1.893 1.478-4.615.367-6.565-2.82-1.477-2.447-1.477-5.453-1.477-6.7V48.14a278.166 278.166 0 00-11.92-3.05 7.74 7.74 0 00-.14 1.526c0 2.864 1.387 5.96 3.19 5.268V75.22c0 6.102-.83 6.884-1.757 8.92 3.144 7.39 8.922 17.373 14.555 20.424 5.275 2.82 11.468-1.802 14.507-7.488-.92-3.098-1.664-4.668-1.664-11.6M32.055 48.74v-.602c.277 2.357 1.524 3.745 3.14 1.85v21.165c0 5.868-.598 9.75-2.124 15.57.37.88.786 1.712 1.156 2.59 4.576-2.958 9.15-5.453 13.773-7.533.228-.508.504-1.016.783-1.573-.094.092-.183.187-.322.232-1.062.463-1.756-1.48-2.126-3.19-.694-2.955-1.017-4.48-1.017-10.766V56.087c2.173 1.433 3.93 1.016 6.285-1.893v10.21c0 6.103-.137 7.763-.924 11-.462 2.08-.97 4.02-1.847 4.804.276.232.603.51.923.787a171.11 171.11 0 0113.724-4.065c.417-1.018.832-2.034 1.25-3.05-1.62-3.883-2.218-6.84-2.218-11.97V43.52c1.894.97 3.28-1.294 3.28-3.698v-.368c-4.946.554-9.843 1.295-14.79 2.124.095.693.138 1.39.23 2.035l-.92-1.895c-1.248.232-2.542.462-3.838.738-.32.787-.645 1.618-.97 2.45l.232-2.308a238.35 238.35 0 00-13.588 3.048c-.043.185-.043.37-.09.554v.417c.09.783.09 1.474 0 2.123zm100.228-8.134v.23c0 2.5 1.297 4.9 3.19 3.976v18.944c0 5.27-.6 8.228-2.218 12.108.417 1.064.83 2.17 1.25 3.234 4.25 1.525 8.546 3.238 12.843 5.27.37-.833.788-1.664 1.206-2.496-1.573-5.406-2.128-9.01-2.128-14.555V47.26c1.85 1.94 3.187 0 3.187-2.725v-.88a285.709 285.709 0 00-17.33-3.05zm-12.196 1.618c1.384 2.08 3.28.045 3.28-2.403v-.367c-8.55-.97-17.053-1.526-25.65-1.617v3.51c1.296.415 2.59.88 3.883 1.296v17.05c0 4.945-.554 7.855-2.08 11.877.372.923.743 1.847 1.157 2.77 6.883.278 13.68.928 20.564 1.896.6-5.868 1.156-11.74 1.755-17.606a68.927 68.927 0 01-2.54-1.338c-2.588 5.59-3.93 5.08-7.9 4.758V47.03a6.227 6.227 0 012.12 2.126c.833.14 1.618.278 2.45.417 1.25-3.188 1.896-5.73 2.962-7.35zm-28.42-.37c.6-.278.784-.415 1.013-.692 1.342 1.94 3.514.554 4.16-1.387.23-.693.322-1.34.322-1.94-10.348-.09-20.743.415-31.19 1.618v.322c0 2.45 1.432 4.435 3.187 3.05v18.113c0 5.084-.506 8.135-2.124 12.525a43.4 43.4 0 001.156 2.68c4.2-.692 8.408-1.11 12.613-1.478.23-.37.463-.694.694-1.016-1.16-3.932-1.898-7.35-1.898-12.94V46.014c0-3.744.65-3.326 1.016-2.45 1.39 3.466 2.035 11.277 2.035 16.13v.783c0 6.284-.138 8.92-1.062 13.033.324.324.6.648.97.97 4.205-.14 8.41-.23 12.617-.322.37-.925.738-1.802 1.153-2.727-1.616-4.065-2.587-6.977-2.587-11.873.002-7.03-.366-13.68-2.077-17.704zm-59.612 4.344v.417a37.73 37.73 0 01-.14-.925 308.784 308.784 0 00-15.11 4.297v5.776c2.82.463 3.558 4.484 3.558 16.96 0 13.355-.693 18.76-3.557 21.488v6.842c5.27-2.68 8.318-6.612 10.258-12.063 1.943-5.455 2.634-12.71 2.634-23.846 0-4.667-.092-12.34-.092-12.34 1.155-.32 2.17-1.892 2.45-4.064v-.602c0-.277-.047-.6-.047-.924-.003-.322.045-.646.045-1.016zm-15.25 3.79v5.775c-.692-.09-1.477.046-2.404.28-.415.09-.783.136-1.154.23v39.925c.37-.09.74-.185 1.155-.368.928-.417 1.713-.924 2.406-1.618v6.84l-.188.09c-4.524 2.265-9.335 3.05-14.002 3.56-.365-1.294-.78-2.543-1.152-3.836 1.524-5.775 2.17-9.982 2.17-16.912v-25C2.02 60.478.77 58.49.492 55.763c5.454-2.126 10.906-4.02 16.314-5.777z" fill="#F8AF00"/></svg>