<svg width="113" height="115" fill="none" xmlns="http://www.w3.org/2000/svg"><path d="M69.276 17.199L74 0 42.708 26.71l11.32-.117-9.442 35.89-7.478-27.621v-.147H24.346l-7.48 27.767-4.18-15.532H0L10.486 86h12.762v-.146l7.48-27.62L38.207 86h12.69l18.38-68.801z" fill="url(#paint0_linear)"/><path d="M111.698 45.874a17.06 17.06 0 00-3.666-5.805 16.108 16.108 0 00-5.693-3.744 19.895 19.895 0 00-7.4-1.323l-26.668.226-3.168 11.912 27.733.13c1.889 0 3.4.515 4.534 1.544 1.134 1.03 1.702 2.498 1.704 4.408 0 1.913-.568 3.444-1.704 4.592-1.136 1.148-2.644 1.723-4.525 1.726H61.938l-3.167 11.423-5.81 22.752L47 115l30.86-28.703H67.467l3.498-14.412 23.96-.077a19.965 19.965 0 007.401-1.32 15.896 15.896 0 005.704-3.724 16.138 16.138 0 003.654-5.792 21.165 21.165 0 001.313-7.604c.034-2.558-.408-5.1-1.3-7.494z" fill="url(#paint1_linear)"/><defs><linearGradient id="paint0_linear" x1="0" y1="15480" x2="26048.7" y2="15480" gradientUnits="userSpaceOnUse"><stop stop-color="#0FF"/><stop offset="1" stop-color="#00FFA1"/></linearGradient><linearGradient id="paint1_linear" x1="47" y1="14435" x2="23279.7" y2="14435" gradientUnits="userSpaceOnUse"><stop stop-color="#0FF"/><stop offset="1" stop-color="#00FFA1"/></linearGradient></defs></svg>