<svg width="66" height="70" viewBox="0 0 66 70" fill="none" xmlns="http://www.w3.org/2000/svg">
    <path d="M32.5966 33.0331H37.2225V31.4703H43.0318V38.8529H23.9364V33.0331H25.4963V18.8606H23.9364V13.0408H34.1027V18.8606H32.5428V33.0331H32.5966Z" fill="white" />
    <path d="M47.2274 31.4705H58.4157V38.8531H47.2274V31.4705Z" fill="#AB1E1E" />
    <path d="M31.198 56.2048C15.7066 56.2048 3.1198 43.5951 3.1198 28.0754C3.17359 12.6097 15.7604 0 31.198 0C41.3105 0 50.6699 5.44265 55.6186 14.2802L50.0245 17.4596C46.2054 10.6697 38.9976 6.46651 31.198 6.46651C19.3105 6.46651 9.57457 16.1663 9.57457 28.1293C9.57457 40.0924 19.2567 49.7921 31.198 49.7921C37.9218 49.7921 44.1614 46.7206 48.3032 41.3857L53.4132 45.3195C48.0342 52.2171 39.9658 56.2048 31.198 56.2048V56.2048ZM2.79707 70C1.99022 70 1.39853 69.7844 0.914426 69.3533C0.484108 68.9222 0.215159 68.4911 0.107579 68.06C0.0537897 67.6289 0 66.9284 0 66.0123C0 65.204 0 64.6112 0.0537897 64.1263C0.107579 63.6413 0.376528 63.1563 0.860636 62.7252C1.34474 62.2941 1.99022 62.0246 2.79707 62.0246C3.28117 62.0246 3.6577 62.0785 3.98044 62.2402C4.30318 62.4018 4.67971 62.6174 5.00245 62.9946L4.41076 63.5874C4.14181 63.3179 3.87286 63.1024 3.6577 62.9946C3.44254 62.8868 3.1198 62.7791 2.79707 62.7791C2.25917 62.7791 1.82885 62.9407 1.50611 63.264C1.18337 63.5874 1.02201 63.9107 0.968215 64.234C0.914426 64.5573 0.860636 65.204 0.860636 66.0662C0.860636 66.9284 0.914426 67.5212 0.968215 67.8984C1.02201 68.2756 1.23716 68.5989 1.50611 68.8684C1.82885 69.1917 2.25917 69.3533 2.79707 69.3533C3.1198 69.3533 3.44254 69.2995 3.6577 69.1378C3.87286 68.9761 4.14181 68.8145 4.41076 68.545L5.00245 69.1378C4.67971 69.4611 4.35697 69.6767 3.98044 69.8383C3.6577 69.8922 3.28117 70 2.79707 70V70ZM6.50856 69.9461V61.9707H11.4034V62.7252H7.36919V65.5273H10.8117V66.2818H7.36919V69.1378H11.4034V69.8922H6.50856V69.9461ZM15.0611 69.9461H14.3619L11.78 61.9707H12.6406L14.6846 68.3834L16.7286 61.9707H17.5892L15.0611 69.9461V69.9461ZM18.5575 69.9461V61.9707H19.4181V69.8922H18.5575V69.9461ZM23.8289 70C23.022 70 22.4303 69.7844 21.9462 69.3533C21.5159 68.9222 21.2469 68.4911 21.1394 68.06C21.0856 67.6289 21.0318 66.9284 21.0318 66.0123C21.0318 65.204 21.0318 64.6112 21.0856 64.1263C21.1394 63.6413 21.4083 63.1563 21.8924 62.7252C22.3765 62.2941 23.022 62.0246 23.8289 62.0246C24.313 62.0246 24.6895 62.0785 25.0122 62.2402C25.335 62.4018 25.7115 62.6174 26.0342 62.9946L25.4425 63.5874C25.1736 63.3179 24.9046 63.1024 24.6895 62.9946C24.4743 62.8868 24.1516 62.7791 23.8289 62.7791C23.291 62.7791 22.8606 62.9407 22.5379 63.264C22.2152 63.5874 22.0538 63.9107 22 64.234C21.9462 64.5573 21.8924 65.204 21.8924 66.0662C21.8924 66.9284 21.9462 67.5212 22 67.8984C22.0538 68.2756 22.2689 68.5989 22.5379 68.8684C22.8606 69.1917 23.291 69.3533 23.8289 69.3533C24.1516 69.3533 24.4743 69.2995 24.6895 69.1378C24.9046 68.9761 25.1736 68.8145 25.4425 68.545L26.0342 69.1378C25.7115 69.4611 25.3888 69.6767 25.0122 69.8383C24.6895 69.8922 24.2592 70 23.8289 70V70ZM32.1663 69.9461V66.2818H28.401V69.8922H27.5403V61.9707H28.401V65.5273H32.1663V61.9707H33.0269V69.8922H32.1663V69.9461ZM34.9633 69.9461V61.9707H39.8582V62.7252H35.824V65.5273H39.2665V66.2818H35.824V69.1378H39.8582V69.8922H34.9633V69.9461ZM41.0416 69.9461V61.9707H42.6015V68.4911H46.2054V69.8922H41.0416V69.9461ZM51.5844 69.9461L51.1002 68.545H48.3032L47.8191 69.9461H46.2054L49.0562 62.0246H50.2396L53.1443 69.9461H51.5844V69.9461ZM49.7555 64.3418L48.7335 67.1978H50.6699L49.7555 64.3418V64.3418ZM57.1247 69.9461H53.8435V61.9707H57.0171C57.7702 61.9707 58.3619 62.1863 58.7922 62.5635C59.2225 62.9407 59.4377 63.4796 59.4377 64.1801C59.4377 64.5574 59.3301 64.9346 59.1149 65.204C58.8998 65.4734 58.6846 65.689 58.4157 65.7968C58.7384 65.9584 58.9535 66.174 59.1687 66.4434C59.3839 66.7129 59.4914 67.0901 59.4914 67.5751C59.4914 68.2756 59.2763 68.8684 58.846 69.2456C58.4157 69.7306 57.8778 69.9461 57.1247 69.9461ZM56.8557 63.3718H55.3496V65.204H56.8557C57.1785 65.204 57.4474 65.0962 57.6088 64.9346C57.7702 64.7729 57.8778 64.5574 57.8778 64.2879C57.8778 64.0185 57.7702 63.8029 57.6088 63.6413C57.4474 63.4796 57.1785 63.3718 56.8557 63.3718ZM56.9633 66.6051H55.3496V68.545H56.9633C57.2861 68.545 57.555 68.4373 57.7164 68.2756C57.8778 68.1139 57.9853 67.8445 57.9853 67.5751C57.9853 67.3056 57.8778 67.0362 57.7164 66.8745C57.555 66.7129 57.3399 66.6051 56.9633 66.6051ZM62.9878 70C62.3423 70 61.8044 69.9461 61.3741 69.7844C60.89 69.6228 60.5134 69.3533 60.1369 68.9761L61.1589 67.9523C61.3741 68.1678 61.6968 68.3834 62.0196 68.4373C62.3423 68.545 62.7188 68.5989 63.0954 68.5989C64.0098 68.5989 64.4939 68.2756 64.4939 67.6289C64.4939 67.3595 64.4401 67.144 64.3325 67.0362C64.2249 66.9284 64.1174 66.8206 64.0098 66.8206C63.9022 66.7667 63.7408 66.7129 63.5795 66.7129L62.6113 66.6051C61.912 66.4973 61.4279 66.2818 61.0513 65.9045C60.6748 65.5273 60.5135 65.0423 60.5135 64.3957C60.5135 63.6951 60.7824 63.1024 61.2665 62.6713C61.7506 62.2402 62.4499 62.0246 63.2567 62.0246C63.7946 62.0246 64.2787 62.0785 64.709 62.2402C65.0856 62.4018 65.4621 62.6174 65.8386 62.9407L64.8704 63.9107C64.6553 63.6951 64.3863 63.5335 64.1174 63.4796C63.8484 63.4257 63.5257 63.3718 63.2567 63.3718C62.8802 63.3718 62.5575 63.4796 62.3423 63.6413C62.1271 63.8029 62.0196 64.0724 62.0196 64.3418C62.0196 64.4496 62.0196 64.5574 62.0734 64.6651C62.1271 64.7729 62.1809 64.8807 62.3423 64.9885C62.4499 65.0962 62.7188 65.204 62.9878 65.2579L63.9022 65.3657C64.5477 65.4734 65.0318 65.6351 65.3007 65.9045C65.5697 66.174 65.7848 66.4434 65.8386 66.7129C65.8924 66.9823 66 67.3056 66 67.6828C66 68.4373 65.7311 69.03 65.1932 69.4611C64.5477 69.7844 63.8484 70 62.9878 70V70Z" fill="white" />
</svg>