<svg width="657" height="415" fill="none" xmlns="http://www.w3.org/2000/svg"><path d="M589.5 207.5c0 52.566-28.996 100.281-76.126 134.909C466.244 377.037 401.063 398.5 329 398.5c-72.063 0-137.244-21.463-184.374-56.091C97.496 307.781 68.5 260.066 68.5 207.5c0-52.566 28.996-100.281 76.126-134.91C191.756 37.964 256.937 16.5 329 16.5c72.063 0 137.244 21.463 184.374 56.09 47.13 34.629 76.126 82.344 76.126 134.91z" stroke="#828282" stroke-width="3"/><rect x="262" width="133" height="43" rx="12" fill="#223D98"/><rect x="262" y="372" width="133" height="43" rx="12" fill="#223D98"/><rect x="524" y="179" width="133" height="43" rx="12" fill="#223D98"/><rect y="179" width="133" height="43" rx="12" fill="#223D98"/><path d="M298.776 29c-.107 0-.161-.104-.161-.311v-.183a.96.96 0 01.011-.183l2.417-14.233c.057-.344.19-.523.397-.537h2.181c.201.014.33.193.387.537l2.374 14.233c0 .022.003.061.011.118a.645.645 0 01.021.15.7.7 0 01.011.108c0 .2-.061.301-.183.301h-1.772c-.172 0-.283-.147-.333-.44l-.398-2.74c-.021-.157-.061-.236-.118-.236h-2.6c-.05 0-.089.082-.118.247l-.451 2.718c-.028.179-.064.3-.107.365-.043.057-.108.086-.194.086h-1.375zm2.557-4.759h2.191c.051 0 .076-.064.076-.193a.178.178 0 00-.022-.097l-1.063-8.282c-.008-.05-.018-.075-.033-.075-.021 0-.035.021-.043.064l-1.256 8.282a.748.748 0 00-.011.097c0 .136.054.204.161.204zM308.401 29a.245.245 0 01-.214-.107c-.043-.072-.065-.215-.065-.43v-14.34c0-.38.093-.57.279-.57h1.633c.151 0 .279.14.387.419l3.641 9.786c.015.05.036.036.065-.043l.011-.097v-9.496c0-.38.096-.57.29-.57h1.278c.179 0 .269.19.269.57v14.384c0 .215-.022.354-.065.419-.043.057-.111.086-.204.086h-1.16c-.072 0-.15-.043-.236-.13a1.01 1.01 0 01-.194-.321l-4.05-10.57c-.028-.058-.05-.04-.064.053a.242.242 0 00-.011.075v10.345c0 .215-.025.358-.075.43-.043.071-.115.107-.215.107h-1.3zm13.074-16.93c-.108 0-.162-.114-.162-.343 0-.05.008-.176.022-.376l.215-3.47c.028-.394.122-.591.279-.591h.87c.072 0 .108.1.108.3 0 .094-.015.226-.043.398l-.677 3.663c-.05.28-.118.42-.204.42h-.408zM317.94 29c-.107 0-.161-.104-.161-.311v-.183a.96.96 0 01.011-.183l2.417-14.233c.057-.344.19-.523.397-.537h2.181c.201.014.33.193.387.537l2.374 14.233c0 .022.003.061.011.118a.645.645 0 01.021.15.7.7 0 01.011.108c0 .2-.061.301-.183.301h-1.772c-.172 0-.283-.147-.333-.44l-.398-2.74c-.021-.157-.061-.236-.118-.236h-2.599c-.051 0-.09.082-.119.247l-.451 2.718c-.028.179-.064.3-.107.365-.043.057-.108.086-.194.086h-1.375zm2.557-4.759h2.191c.051 0 .076-.064.076-.193a.17.17 0 00-.022-.097l-1.063-8.282c-.007-.05-.018-.075-.033-.075-.021 0-.035.021-.042.064l-1.257 8.282c-.007.05-.011.083-.011.097 0 .136.054.204.161.204zM327.555 29c-.093 0-.161-.029-.204-.086-.043-.064-.065-.204-.065-.419V14.058c0-.215.022-.351.065-.409.043-.064.111-.096.204-.096h1.579c.093 0 .161.032.204.096.043.058.064.194.064.409v12.998c0 .157.05.236.151.236h2.793c.093 0 .161.025.204.075.043.05.064.165.064.344v.86c0 .178-.021.296-.064.354-.043.05-.111.075-.204.075h-4.791zm7.025 0a.415.415 0 01-.15-.021c-.036-.022-.068-.072-.097-.15a1.357 1.357 0 01-.032-.334V14.058c0-.208.021-.344.064-.409a.257.257 0 01.215-.096h1.579c.057 0 .104.01.14.032.036.014.064.06.086.14.028.078.043.19.043.333v14.437c0 .208-.022.344-.065.408-.043.065-.111.097-.204.097h-1.579zm7.455-15.62c1.347 0 2.396.491 3.148 1.472a.534.534 0 01.107.333c0 .251-.107.516-.322.795-.208.28-.383.42-.527.42-.043 0-.075-.015-.096-.044-.638-.773-1.397-1.16-2.278-1.16-.494 0-.891.212-1.192.634-.301.415-.451.924-.451 1.525 0 .566.129 1.028.387 1.386.257.358.626.691 1.106 1l1.364.88c1.44.931 2.159 2.292 2.159 4.082 0 1.31-.333 2.381-.999 3.212-.666.83-1.561 1.246-2.685 1.246-1.518 0-2.714-.655-3.588-1.966a.436.436 0 01-.064-.247c0-.25.1-.523.3-.816.208-.3.405-.451.591-.451.072 0 .136.032.193.096.803 1.024 1.658 1.537 2.568 1.537.558 0 .995-.215 1.31-.645.316-.437.473-.988.473-1.654 0-.602-.125-1.089-.376-1.461-.251-.38-.634-.738-1.149-1.074l-1.375-.924a5.554 5.554 0 01-.785-.623 5.135 5.135 0 01-.644-.774 3.873 3.873 0 01-.473-1.074 5.462 5.462 0 01-.161-1.364c0-1.29.312-2.335.935-3.137.63-.802 1.471-1.203 2.524-1.203zm5.5 15.62a.419.419 0 01-.15-.021c-.036-.022-.068-.072-.097-.15a1.357 1.357 0 01-.032-.334V14.058c0-.208.021-.344.064-.409a.257.257 0 01.215-.096h1.579c.058 0 .104.01.14.032.036.014.064.06.086.14.028.078.043.19.043.333v14.437c0 .208-.022.344-.065.408-.043.065-.111.097-.204.097h-1.579zm7.455-15.62c1.347 0 2.396.491 3.148 1.472a.534.534 0 01.107.333c0 .251-.107.516-.322.795-.208.28-.383.42-.527.42-.042 0-.075-.015-.096-.044-.638-.773-1.397-1.16-2.278-1.16-.494 0-.891.212-1.192.634-.301.415-.451.924-.451 1.525 0 .566.129 1.028.387 1.386.257.358.626.691 1.106 1l1.364.88c1.44.931 2.16 2.292 2.16 4.082 0 1.31-.334 2.381-1 3.212-.666.83-1.561 1.246-2.685 1.246-1.518 0-2.714-.655-3.588-1.966a.436.436 0 01-.064-.247c0-.25.1-.523.3-.816.208-.3.405-.451.591-.451.072 0 .136.032.194.096.802 1.024 1.657 1.537 2.567 1.537.559 0 .995-.215 1.31-.645.316-.437.473-.988.473-1.654 0-.602-.125-1.089-.376-1.461-.25-.38-.634-.738-1.149-1.074l-1.375-.924a5.542 5.542 0 01-.784-.623 5.138 5.138 0 01-.645-.774 3.903 3.903 0 01-.473-1.074 5.462 5.462 0 01-.161-1.364c0-1.29.312-2.335.935-3.137.63-.802 1.472-1.203 2.524-1.203zM561.971 209a.43.43 0 01-.151-.021c-.035-.022-.068-.072-.096-.151a1.304 1.304 0 01-.033-.333v-14.437c0-.208.022-.344.065-.409a.257.257 0 01.215-.096h1.579a.26.26 0 01.139.032c.036.014.065.061.086.14a.998.998 0 01.043.333v14.437c0 .208-.021.344-.064.408-.043.065-.111.097-.204.097h-1.579zm6.585-1.708h1.321c.551 0 .977-.165 1.278-.494.301-.33.523-.931.666-1.805.151-.881.226-2.145.226-3.792 0-1.525-.086-2.732-.258-3.62-.165-.888-.394-1.497-.687-1.826-.294-.33-.677-.494-1.15-.494h-1.407c-.086 0-.129.079-.129.236v11.559c0 .157.047.236.14.236zM566.568 209c-.093 0-.161-.029-.204-.086-.043-.057-.064-.186-.064-.387v-14.545c0-.179.021-.293.064-.343.043-.058.111-.086.204-.086h3.696c.63 0 1.174.125 1.632.376.466.25.874.662 1.225 1.235.351.573.612 1.361.784 2.363.179.996.269 2.21.269 3.642 0 1.017-.032 1.916-.097 2.696-.064.774-.15 1.44-.258 1.998-.1.552-.247 1.021-.44 1.408a4.208 4.208 0 01-.602.913 2.078 2.078 0 01-.784.515 4.205 4.205 0 01-.924.247 9.239 9.239 0 01-1.095.054h-3.406zm10.055 0c-.093 0-.161-.025-.204-.075-.043-.057-.065-.183-.065-.376v-14.545c0-.186.022-.308.065-.365.043-.058.111-.086.204-.086h5.65a.39.39 0 01.14.021c.036.015.065.054.086.118a.746.746 0 01.043.29v.849c0 .179-.021.297-.064.355-.043.05-.111.075-.205.075H578.6c-.086 0-.129.118-.129.354v4.34c0 .065.01.129.032.193.029.065.054.097.075.097h2.954c.179 0 .269.165.269.494v.827c0 .33-.09.495-.269.495h-2.943c-.029 0-.057.035-.086.107a.728.728 0 00-.032.215v4.909h3.835c.064 0 .114.007.15.021.036.015.065.054.086.119a.74.74 0 01.043.29v.848c0 .179-.025.298-.075.355-.043.05-.111.075-.204.075h-5.683zm7.294 0c-.107 0-.161-.104-.161-.312v-.182c0-.093.003-.154.011-.183l2.417-14.233c.057-.344.189-.523.397-.537h2.181c.2.014.329.193.386.537l2.374 14.233c0 .022.004.061.011.118a.61.61 0 01.022.151c.007.043.01.079.01.107 0 .201-.06.301-.182.301h-1.773c-.172 0-.283-.147-.333-.44l-.397-2.74c-.022-.157-.061-.236-.118-.236h-2.6c-.05 0-.089.082-.118.247l-.451 2.718c-.029.179-.065.301-.108.365-.043.057-.107.086-.193.086h-1.375zm2.557-4.759h2.191c.05 0 .075-.064.075-.193a.181.181 0 00-.021-.097l-1.064-8.282c-.007-.05-.018-.075-.032-.075-.021 0-.036.021-.043.064l-1.257 8.282a1.046 1.046 0 00-.011.097c0 .136.054.204.162.204zm10.806 4.92a7.74 7.74 0 01-.977-.054 3.98 3.98 0 01-.892-.236 2.517 2.517 0 01-.827-.526c-.222-.222-.448-.53-.677-.924a5.657 5.657 0 01-.537-1.407 15.626 15.626 0 01-.333-2.02 25.813 25.813 0 01-.129-2.728c0-1.375.083-2.557.247-3.545.172-.989.387-1.758.645-2.31.258-.551.591-.985.999-1.3.415-.315.809-.515 1.181-.601.38-.086.831-.129 1.354-.129.666 0 1.214.1 1.644.301l.032.032a.07.07 0 01.032.032c.014.007.025.025.032.054a.28.28 0 01.011.086v1.3c0 .1-.025.15-.075.15a.58.58 0 01-.086-.022 8.026 8.026 0 00-.473-.118 3.47 3.47 0 00-.354-.053 3.347 3.347 0 00-.387-.022c-.337 0-.623.039-.859.118-.237.072-.477.233-.72.484-.244.243-.441.583-.591 1.02-.15.437-.272 1.035-.365 1.794-.093.759-.14 1.669-.14 2.729 0 1.081.04 2.001.118 2.76.086.759.194 1.361.323 1.805.128.437.308.777.537 1.021.229.243.458.401.687.472.229.072.516.108.86.108.508 0 .959-.068 1.353-.204.007 0 .022.035.043.107a.865.865 0 01.043.118v1.235a.801.801 0 01-.043.119.462.462 0 01-.043.107c-.437.165-.981.247-1.633.247zm3.943-.161a.43.43 0 01-.151-.021c-.036-.022-.068-.072-.096-.151a1.304 1.304 0 01-.033-.333v-14.437c0-.208.022-.344.065-.409a.257.257 0 01.215-.096h1.579a.26.26 0 01.139.032c.036.014.065.061.086.14a.998.998 0 01.043.333v14.437c0 .208-.021.344-.064.408-.043.065-.111.097-.204.097h-1.579zm7.841-16.93c-.107 0-.161-.114-.161-.343 0-.051.007-.176.022-.376l.215-3.47c.028-.394.121-.591.279-.591h.87c.072 0 .107.1.107.301 0 .093-.014.225-.042.397l-.677 3.663c-.05.28-.118.419-.204.419h-.409zm.194 15.394c.501 0 .884-.168 1.149-.505.265-.344.459-.96.58-1.848.122-.895.183-2.198.183-3.91 0-1.654-.057-2.907-.172-3.76-.115-.852-.304-1.45-.569-1.794-.258-.35-.645-.526-1.16-.526-.502 0-.888.179-1.161.537-.265.351-.454.956-.569 1.816-.115.859-.172 2.102-.172 3.727 0 1.697.061 2.994.183 3.889.122.888.311 1.507.569 1.858.265.344.645.516 1.139.516zm.011 1.697c-.595 0-1.1-.064-1.515-.193a2.744 2.744 0 01-1.117-.698c-.337-.344-.602-.817-.795-1.418-.194-.602-.344-1.361-.451-2.278-.101-.924-.151-2.048-.151-3.373 0-1.06.032-1.991.097-2.793.072-.802.183-1.493.333-2.073.157-.58.34-1.06.548-1.439.207-.38.469-.681.784-.903a2.814 2.814 0 011.01-.472c.358-.094.777-.14 1.257-.14.58 0 1.074.068 1.482.204.415.129.791.362 1.128.698.336.337.605.802.806 1.397.2.587.35 1.335.451 2.245.107.902.161 1.994.161 3.276 0 1.332-.05 2.46-.151 3.384-.1.924-.247 1.686-.44 2.288-.193.602-.458 1.071-.795 1.407-.336.33-.712.559-1.128.688-.408.129-.913.193-1.514.193zm6.488-.161a.248.248 0 01-.215-.107c-.043-.072-.064-.215-.064-.43v-14.341c0-.379.093-.569.279-.569h1.633c.15 0 .279.139.386.419l3.642 9.786c.014.05.036.036.064-.043l.011-.097v-9.496c0-.379.097-.569.29-.569h1.279c.179 0 .268.19.268.569v14.384c0 .215-.021.354-.064.419-.043.057-.111.086-.204.086h-1.161c-.071 0-.15-.043-.236-.129a1.018 1.018 0 01-.193-.322l-4.05-10.571c-.029-.057-.05-.039-.065.054a.243.243 0 00-.01.075v10.345c0 .215-.025.358-.076.43-.042.071-.114.107-.214.107h-1.3zM281.32 401c-.179 0-.268-.186-.268-.559v-14.383c0-.208.021-.344.064-.409.043-.064.111-.096.204-.096h3.159c.329 0 .612.01.848.032.244.021.512.072.806.15.301.079.555.19.763.333a2.8 2.8 0 01.623.591c.214.251.386.552.515.903.129.35.233.787.312 1.31.086.516.129 1.103.129 1.762 0 .859-.072 1.6-.215 2.223-.136.623-.312 1.11-.527 1.461a2.458 2.458 0 01-.837.838c-.337.201-.663.33-.978.387a6.281 6.281 0 01-1.106.086h-1.526c-.079 0-.118.064-.118.193v4.619c0 .373-.09.559-.269.559h-1.579zm1.955-7.09h1.289c.294 0 .534-.021.72-.064.186-.05.355-.14.505-.269.15-.129.261-.319.333-.569.079-.251.136-.562.172-.935.043-.379.064-.856.064-1.428 0-.616-.035-1.136-.107-1.558-.064-.43-.147-.763-.247-.999a1.136 1.136 0 00-.441-.537 1.348 1.348 0 00-.537-.237 3.442 3.442 0 00-.666-.053h-1.085c-.071 0-.107.071-.107.215v6.241c0 .129.036.193.107.193zm7.348 7.09c-.093 0-.161-.029-.204-.086-.043-.064-.065-.197-.065-.397v-14.47c0-.215.022-.351.065-.408.043-.058.111-.086.204-.086h3.609c.452 0 .835.025 1.15.075.322.05.652.157.988.322.337.165.605.394.806.688.207.293.376.694.505 1.203.136.508.204 1.121.204 1.837a7.44 7.44 0 01-.118 1.407c-.079.394-.197.716-.355.967a2.27 2.27 0 01-1.171.945c-.021.022-.032.043-.032.065 0 .021.011.039.032.053.258.122.466.247.623.376.165.129.33.319.494.57.165.243.29.576.376.999.086.422.14.941.162 1.557.028.559.042 1.841.042 3.846 0 .358-.064.537-.193.537l-1.708.011c-.114 0-.175-.161-.183-.484 0-.05-.021-.852-.064-2.406-.043-1.554-.089-2.449-.14-2.685a1.88 1.88 0 00-.182-.731.903.903 0 00-.376-.43 1.325 1.325 0 00-.451-.182 2.234 2.234 0 00-.516-.054h-1.536c-.079 0-.118.079-.118.236v6.242c0 .2-.022.333-.065.397-.043.057-.111.086-.204.086h-1.579zm1.955-8.637h1.386c1.196 0 1.794-.87 1.794-2.61 0-.924-.165-1.568-.494-1.934-.323-.372-.867-.558-1.633-.558h-1.042c-.079 0-.118.071-.118.215v4.597c0 .194.036.29.107.29zM300.57 401a.427.427 0 01-.15-.021c-.036-.022-.068-.072-.097-.151a1.36 1.36 0 01-.032-.333v-14.437c0-.208.021-.344.064-.409a.258.258 0 01.215-.096h1.579c.058 0 .104.01.14.032.036.014.065.061.086.14a.998.998 0 01.043.333v14.437c0 .208-.022.344-.064.408-.043.065-.111.097-.205.097h-1.579zm8.035-1.536c.502 0 .885-.168 1.15-.505.265-.344.458-.96.58-1.848.122-.895.183-2.198.183-3.91 0-1.654-.058-2.907-.172-3.76-.115-.852-.305-1.45-.57-1.794-.257-.35-.644-.526-1.16-.526-.501 0-.888.179-1.16.537-.265.351-.455.956-.569 1.816-.115.859-.172 2.102-.172 3.727 0 1.697.061 2.994.182 3.889.122.888.312 1.507.57 1.858.265.344.644.516 1.138.516zm.011 1.697c-.594 0-1.099-.064-1.514-.193a2.747 2.747 0 01-1.118-.698c-.336-.344-.601-.817-.795-1.418-.193-.602-.343-1.361-.451-2.278-.1-.924-.15-2.048-.15-3.373 0-1.06.032-1.991.097-2.793.071-.802.182-1.493.333-2.073.157-.58.34-1.06.547-1.439.208-.38.47-.681.785-.903a2.81 2.81 0 011.009-.472c.358-.094.777-.14 1.257-.14.58 0 1.074.068 1.483.204.415.129.791.362 1.128.698.336.337.605.802.805 1.397.201.587.351 1.335.451 2.245.108.902.162 1.994.162 3.276 0 1.332-.051 2.46-.151 3.384-.1.924-.247 1.686-.44 2.288-.194.602-.459 1.071-.795 1.407a2.78 2.78 0 01-1.128.688c-.408.129-.913.193-1.515.193zm6.478-.161c-.093 0-.161-.029-.204-.086-.043-.064-.065-.197-.065-.397v-14.47c0-.215.022-.351.065-.408.043-.058.111-.086.204-.086h3.609a7.5 7.5 0 011.15.075c.322.05.651.157.988.322.336.165.605.394.805.688.208.293.376.694.505 1.203.136.508.204 1.121.204 1.837 0 .537-.039 1.006-.118 1.407-.078.394-.197.716-.354.967-.158.243-.33.437-.516.58a2.474 2.474 0 01-.655.365c-.022.022-.032.043-.032.065 0 .021.01.039.032.053.258.122.465.247.623.376.165.129.329.319.494.57.165.243.29.576.376.999.086.422.14.941.161 1.557.029.559.043 1.841.043 3.846 0 .358-.064.537-.193.537l-1.708.011c-.115 0-.176-.161-.183-.484 0-.05-.021-.852-.064-2.406-.043-1.554-.09-2.449-.14-2.685a1.861 1.861 0 00-.183-.731.898.898 0 00-.376-.43 1.31 1.31 0 00-.451-.182 2.22 2.22 0 00-.515-.054h-1.536c-.079 0-.119.079-.119.236v6.242c0 .2-.021.333-.064.397-.043.057-.111.086-.204.086h-1.579zm1.955-8.637h1.386c1.196 0 1.794-.87 1.794-2.61 0-.924-.165-1.568-.495-1.934-.322-.372-.866-.558-1.632-.558h-1.042c-.079 0-.119.071-.119.215v4.597c0 .194.036.29.108.29zm7.992 8.637a.424.424 0 01-.15-.021c-.036-.022-.068-.072-.097-.151a1.311 1.311 0 01-.032-.333v-14.437c0-.208.021-.344.064-.409a.257.257 0 01.215-.096h1.579c.057 0 .104.01.14.032.036.014.064.061.086.14.028.078.043.189.043.333v14.437c0 .208-.022.344-.065.408-.043.065-.111.097-.204.097h-1.579zm4.243 0a.384.384 0 01-.139-.021c-.036-.015-.069-.054-.097-.119a.96.96 0 01-.032-.29v-.644c0-.251.057-.555.172-.913l3.351-11.387a.421.421 0 00.043-.193c0-.115-.025-.172-.075-.172h-3.126a.405.405 0 01-.151-.022c-.028-.014-.057-.053-.085-.118a.953.953 0 01-.033-.29v-.849c0-.179.022-.293.065-.343.043-.058.111-.086.204-.086h5.446c.057 0 .104.007.14.021.036.015.064.054.086.118a.766.766 0 01.043.29v.484c0 .293-.061.659-.183 1.096l-3.394 11.408a.873.873 0 00-.022.172c0 .1.022.15.065.15H334.999c.057 0 .097.004.118.011.029.007.054.039.075.096a.598.598 0 01.043.258v.913c0 .179-.025.298-.075.355-.043.05-.111.075-.204.075h-5.672zm7.262 0c-.108 0-.161-.104-.161-.312v-.182c0-.093.003-.154.011-.183l2.416-14.233c.058-.344.19-.523.398-.537h2.181c.2.014.329.193.386.537l2.374 14.233c0 .022.004.061.011.118a.662.662 0 01.022.151c.007.043.01.079.01.107 0 .201-.061.301-.182.301h-1.773c-.172 0-.283-.147-.333-.44l-.397-2.74c-.022-.157-.061-.236-.118-.236h-2.6c-.05 0-.09.082-.118.247l-.451 2.718c-.029.179-.065.301-.108.365-.043.057-.107.086-.193.086h-1.375zm2.557-4.759h2.191c.05 0 .075-.064.075-.193a.181.181 0 00-.021-.097l-1.064-8.282c-.007-.05-.018-.075-.032-.075-.022 0-.036.021-.043.064l-1.257 8.282a1.046 1.046 0 00-.011.097c0 .136.054.204.162.204zm10.806 4.92a7.74 7.74 0 01-.977-.054 3.98 3.98 0 01-.892-.236 2.517 2.517 0 01-.827-.526c-.222-.222-.448-.53-.677-.924a5.657 5.657 0 01-.537-1.407 15.626 15.626 0 01-.333-2.02 25.813 25.813 0 01-.129-2.728c0-1.375.082-2.557.247-3.545.172-.989.387-1.758.645-2.31.258-.551.591-.985.999-1.3.415-.315.809-.515 1.181-.601.38-.086.831-.129 1.354-.129.666 0 1.214.1 1.643.301l.033.032a.07.07 0 01.032.032c.014.007.025.025.032.054a.28.28 0 01.011.086v1.3c0 .1-.025.15-.075.15a.58.58 0 01-.086-.022 8.601 8.601 0 00-.473-.118 3.47 3.47 0 00-.354-.053 3.347 3.347 0 00-.387-.022c-.337 0-.623.039-.86.118-.236.072-.476.233-.719.484-.244.243-.441.583-.591 1.02-.15.437-.272 1.035-.365 1.794-.093.759-.14 1.669-.14 2.729 0 1.081.039 2.001.118 2.76.086.759.194 1.361.322 1.805.129.437.308.777.538 1.021.229.243.458.401.687.472.229.072.516.108.859.108.509 0 .96-.068 1.354-.204.007 0 .021.035.043.107a.865.865 0 01.043.118v1.235a.801.801 0 01-.043.119.519.519 0 01-.043.107c-.437.165-.981.247-1.633.247zm3.943-.161a.43.43 0 01-.151-.021c-.036-.022-.068-.072-.097-.151a1.36 1.36 0 01-.032-.333v-14.437c0-.208.022-.344.065-.409a.256.256 0 01.215-.096h1.579a.26.26 0 01.139.032c.036.014.065.061.086.14a.998.998 0 01.043.333v14.437c0 .208-.021.344-.064.408-.043.065-.111.097-.204.097h-1.579zm7.841-16.93c-.107 0-.161-.114-.161-.343 0-.051.007-.176.022-.376l.215-3.47c.028-.394.121-.591.279-.591h.87c.072 0 .107.1.107.301 0 .093-.014.225-.043.397l-.676 3.663c-.05.28-.118.419-.204.419h-.409zm.194 15.394c.501 0 .884-.168 1.149-.505.265-.344.458-.96.58-1.848.122-.895.183-2.198.183-3.91 0-1.654-.057-2.907-.172-3.76-.115-.852-.304-1.45-.569-1.794-.258-.35-.645-.526-1.161-.526-.501 0-.888.179-1.16.537-.265.351-.454.956-.569 1.816-.115.859-.172 2.102-.172 3.727 0 1.697.061 2.994.183 3.889.121.888.311 1.507.569 1.858.265.344.645.516 1.139.516zm.01 1.697c-.594 0-1.099-.064-1.514-.193a2.744 2.744 0 01-1.117-.698c-.337-.344-.602-.817-.795-1.418-.194-.602-.344-1.361-.451-2.278-.101-.924-.151-2.048-.151-3.373 0-1.06.032-1.991.097-2.793.071-.802.182-1.493.333-2.073.157-.58.34-1.06.548-1.439.207-.38.469-.681.784-.903a2.814 2.814 0 011.01-.472c.358-.094.777-.14 1.256-.14.581 0 1.075.068 1.483.204.415.129.791.362 1.128.698.336.337.605.802.805 1.397.201.587.351 1.335.452 2.245.107.902.161 1.994.161 3.276 0 1.332-.05 2.46-.151 3.384-.1.924-.247 1.686-.44 2.288-.193.602-.458 1.071-.795 1.407a2.78 2.78 0 01-1.128.688c-.408.129-.913.193-1.515.193zm6.489-.161a.248.248 0 01-.215-.107c-.043-.072-.065-.215-.065-.43v-14.341c0-.379.094-.569.28-.569h1.633c.15 0 .279.139.386.419l3.642 9.786c.014.05.036.036.064-.043l.011-.097v-9.496c0-.379.097-.569.29-.569h1.278c.179 0 .269.19.269.569v14.384c0 .215-.021.354-.064.419-.043.057-.111.086-.205.086h-1.16c-.071 0-.15-.043-.236-.129a1.018 1.018 0 01-.193-.322l-4.05-10.571c-.029-.057-.05-.039-.065.054a.243.243 0 00-.01.075v10.345c0 .215-.025.358-.076.43-.043.071-.114.107-.214.107h-1.3zM40.01 209c-.18 0-.269-.186-.269-.559v-14.383c0-.208.022-.344.065-.409.043-.064.11-.096.204-.096h3.158c.33 0 .612.01.849.032.243.021.512.072.805.15.301.079.555.19.763.333.208.136.415.333.623.591.215.251.387.552.516.903.129.35.232.787.311 1.31.086.516.13 1.103.13 1.762 0 .859-.073 1.6-.216 2.223-.136.623-.311 1.11-.526 1.461a2.463 2.463 0 01-.838.838 2.94 2.94 0 01-.978.387 6.283 6.283 0 01-1.106.086h-1.525c-.08 0-.119.064-.119.193v4.619c0 .373-.09.559-.268.559h-1.58zm1.955-7.09h1.289c.294 0 .533-.021.72-.064.186-.05.354-.14.505-.269.15-.129.26-.319.333-.569.078-.251.136-.562.171-.935.043-.379.065-.856.065-1.428 0-.616-.036-1.136-.108-1.558-.064-.43-.146-.763-.247-.999a1.14 1.14 0 00-.44-.537 1.35 1.35 0 00-.537-.237 3.44 3.44 0 00-.666-.053h-1.085c-.072 0-.108.071-.108.215v6.241c0 .129.036.193.108.193zm7.347 7.09c-.093 0-.16-.029-.204-.086-.043-.064-.064-.197-.064-.397v-14.47c0-.215.021-.351.064-.408.043-.058.111-.086.205-.086h3.609c.451 0 .834.025 1.15.075.322.05.651.157.988.322.336.165.605.394.805.688.208.293.376.694.505 1.203.136.508.204 1.121.204 1.837 0 .537-.04 1.006-.118 1.407-.079.394-.197.716-.354.967-.158.243-.33.437-.516.58a2.479 2.479 0 01-.655.365c-.022.022-.033.043-.033.065 0 .021.011.039.033.053.258.122.465.247.623.376.164.129.33.319.494.57.165.243.29.576.376.999.086.422.14.941.161 1.557.029.559.043 1.841.043 3.846 0 .358-.065.537-.193.537l-1.708.011c-.115 0-.176-.161-.183-.484 0-.05-.021-.852-.064-2.406-.043-1.554-.09-2.449-.14-2.685a1.88 1.88 0 00-.183-.731.9.9 0 00-.376-.43c-.15-.093-.3-.154-.45-.182a2.225 2.225 0 00-.517-.054h-1.536c-.078 0-.118.079-.118.236v6.242c0 .2-.021.333-.064.397-.043.057-.111.086-.204.086h-1.58zm1.956-8.637h1.385c1.196 0 1.794-.87 1.794-2.61 0-.924-.164-1.568-.494-1.934-.322-.372-.866-.558-1.633-.558h-1.042c-.078 0-.118.071-.118.215v4.597c0 .194.036.29.108.29zm11.612 8.798a7.95 7.95 0 01-1-.054 4.043 4.043 0 01-.87-.193 2.268 2.268 0 01-.762-.44 3.631 3.631 0 01-.612-.752 4.324 4.324 0 01-.462-1.16 12.371 12.371 0 01-.28-1.633 22.053 22.053 0 01-.096-2.192v-8.679c0-.208.021-.344.064-.409a.257.257 0 01.215-.096h1.58c.057 0 .103.01.139.032.036.014.064.061.086.14.029.078.043.189.043.333v8.615c0 .845.025 1.554.075 2.127.05.573.122 1.035.215 1.386.093.35.222.619.387.805.171.179.35.301.537.365.186.058.43.086.73.086.38 0 .673-.043.881-.129.208-.085.397-.29.57-.612.171-.322.286-.802.343-1.439.065-.638.097-1.501.097-2.589v-8.615c0-.215.021-.351.064-.409.043-.064.111-.096.204-.096h1.59c.058 0 .1.01.13.032.035.014.063.061.085.14.029.078.043.189.043.333v8.679c0 .831-.036 1.572-.107 2.224a11.403 11.403 0 01-.269 1.643 3.935 3.935 0 01-.473 1.139 3.366 3.366 0 01-.601.752c-.2.179-.451.322-.752.43-.294.1-.573.165-.838.193a8.975 8.975 0 01-.956.043zm6.606-.161c-.093 0-.16-.025-.204-.075-.043-.057-.064-.183-.064-.376v-14.545c0-.186.021-.308.064-.365.043-.058.111-.086.204-.086h5.65a.39.39 0 01.14.021c.036.015.065.054.086.118a.752.752 0 01.043.29v.849c0 .179-.021.297-.064.355-.043.05-.111.075-.204.075h-3.674c-.086 0-.129.118-.129.354v4.34c0 .065.01.129.032.193.029.065.054.097.075.097h2.954c.18 0 .27.165.27.494v.827c0 .33-.09.495-.27.495h-2.943c-.028 0-.057.035-.086.107a.745.745 0 00-.032.215v4.909h3.835c.064 0 .115.007.15.021.036.015.065.054.086.119a.747.747 0 01.043.29v.848c0 .179-.025.298-.075.355-.043.05-.111.075-.204.075h-5.683zm8.1 0c-.1 0-.175-.029-.226-.086-.043-.057-.064-.186-.064-.387v-14.491c0-.208.021-.34.064-.397.05-.058.126-.086.226-.086h3.932c2.04 0 3.061 1.421 3.061 4.264 0 1.325-.319 2.253-.956 2.783-.064.064-.097.107-.097.129 0 .021.036.068.108.139.895.638 1.343 1.83 1.343 3.577 0 .86-.09 1.59-.269 2.192-.172.601-.426 1.074-.763 1.418-.33.336-.709.58-1.138.73-.43.143-.928.215-1.493.215h-3.728zm1.977-1.611h1.364c.63 0 1.117-.265 1.46-.795.352-.53.527-1.25.527-2.159 0-.81-.154-1.476-.462-1.998-.308-.523-.702-.785-1.181-.785h-1.709c-.1 0-.15.086-.15.258v5.264c0 .143.05.215.15.215zm0-7.337h1.783c.394 0 .709-.194.945-.58.236-.394.355-.924.355-1.59 0-.874-.154-1.533-.462-1.977-.301-.451-.717-.676-1.246-.676h-1.376c-.1 0-.15.078-.15.236v4.372c0 .143.05.215.15.215zM86.404 209c-.107 0-.16-.104-.16-.312v-.182c0-.093.003-.154.01-.183l2.417-14.233c.057-.344.19-.523.397-.537h2.181c.2.014.33.193.387.537l2.374 14.233c0 .022.003.061.01.118a.642.642 0 01.022.151c.007.043.01.079.01.107 0 .201-.06.301-.182.301H92.1c-.172 0-.283-.147-.333-.44l-.398-2.74c-.021-.157-.06-.236-.118-.236h-2.6c-.05 0-.09.082-.118.247l-.45 2.718c-.03.179-.065.301-.108.365-.043.057-.108.086-.194.086h-1.375zm2.557-4.759h2.191c.05 0 .075-.064.075-.193a.177.177 0 00-.021-.097l-1.063-8.282c-.008-.05-.018-.075-.033-.075-.021 0-.035.021-.043.064l-1.257 8.282a.97.97 0 00-.01.097c0 .136.053.204.16.204z" fill="#fff"/></svg>